<svg width="40" height="40" viewBox="0 0 40 40" fill="none" xmlns="http://www.w3.org/2000/svg">
<path d="M39.9996 19.8763C39.9529 16.0414 38.8179 12.2999 36.7283 9.09234C34.6387 5.88476 31.6819 3.34472 28.2058 1.77137C24.7294 0.198023 20.8788 -0.343104 17.1072 0.211682C13.3357 0.766494 9.80019 2.3941 6.91718 4.9029C4.03415 7.41168 1.92366 10.6971 0.834254 14.3723C-0.255128 18.0475 -0.278079 21.9593 0.768152 25.6473C1.81438 29.3352 3.88619 32.6453 6.7396 35.1882C9.59298 37.7311 13.1092 39.4006 16.874 40V25.7373H11.8738V19.8763H16.874V15.4239C16.7582 14.3887 16.8697 13.3405 17.2007 12.3533C17.5317 11.3661 18.074 10.4641 18.7893 9.71081C19.5045 8.95753 20.3753 8.3714 21.3403 7.99381C22.3054 7.61618 23.3412 7.45628 24.3742 7.5254C25.8737 7.54605 27.3698 7.68061 28.8493 7.92788V12.9588H26.3492C25.9182 12.9041 25.4802 12.9476 25.0682 13.086C24.6559 13.2244 24.2799 13.4543 23.9679 13.7585C23.6559 14.0628 23.4159 14.4337 23.2657 14.8438C23.1151 15.2541 23.0584 15.693 23.0991 16.1282V19.9266H28.6493L27.7493 25.7876H23.1241V39.8742C27.849 39.1224 32.1497 36.6914 35.2458 33.0224C38.3418 29.3533 40.0284 24.6894 39.9996 19.8763Z" fill="white"/>
</svg>
