<?xml version="1.0" encoding="utf-8"?>
<!-- Generator: Adobe Illustrator 23.1.0, SVG Export Plug-In . SVG Version: 6.00 Build 0)  -->
<svg version="1.1" id="Camada_1" xmlns="http://www.w3.org/2000/svg" xmlns:xlink="http://www.w3.org/1999/xlink" x="0px" y="0px"
	 viewBox="0 0 751.7 217.7" style="enable-background:new 0 0 751.7 217.7;" xml:space="preserve">
<style type="text/css">
	.st0{fill:none;stroke:#F9F9F9;stroke-width:19.2161;stroke-linecap:round;stroke-linejoin:round;stroke-miterlimit:10;}
	.st1{fill:#F9F9F9;}
</style>
<g>
	
		<image style="overflow:visible;opacity:0.2;enable-background:new    ;" width="697" height="693" xlink:href="BAFDBD34.png"  transform="matrix(0.3132 0 0 0.3132 0 0.3114)">
	</image>
	<g>
		<path class="st0" d="M79.1,184c-5.6,3.2-12,6.4-19.2,9.4c-8.3,3.5-16.1,6-23,7.9c3.3-11.1,6.5-22.3,9.8-33.4
			c-5.8-5.8-13.5-14.9-20.2-27.4c-6-11.3-17.3-32.7-12.6-58.8c5.1-28.9,26.6-45.6,32.3-50c37.8-29.3,85.1-16.8,91.4-15.1
			c1.7,0.5,3.3,1.1,5,1.7c1.4,0.5,2.8,1.1,4.1,1.6c9,3.6,29.6,13.4,43.4,35.7c5.3,8.7,8.3,17,10,23.8c1.4,5.7,4.9,23.5-3.9,43.2
			c-8.7,19.4-24,28.7-29.2,31.6c-8.2,3.5-22.6,8.5-41,8.3c-9-0.1-22.2-0.2-36.7-7.7c-3.5-1.8-23.3-12.4-32.5-35.7
			c-1.4-3.4-5.5-14.8-4.4-28.9c0.1-0.9,0.8-10.2,4.6-17.2c3-5.7,7.4-9.3,7.4-9.3s0.1-0.1,0.2-0.2c2.1-1.7,14.1-10.9,27.8-6.2
			c8.4,2.9,12.9,9.5,14.4,12c1.1-1.4,9.6-11.9,23.7-12c14.4-0.1,23,10.5,25.2,13.6c11.4,15.6,3.7,34.3,3.1,35.6
			c-7.2,16.6-23.7,21.2-25.8,21.7"/>
	</g>
</g>
<g>
	
		<image style="overflow:visible;opacity:0.75;enable-background:new    ;" width="512" height="102" xlink:href="BAFDBD35.png"  transform="matrix(1 0 0 1 247 60)">
	</image>
	<g>
		<g>
			<path class="st1" d="M276.2,123c4.3,0,7.5-1,10.1-1c4.8,0,6.8,2.3,6.8,5.3c0,6.1-7.6,7.6-14.7,7.6c-19.4,0-26.1-10.8-26.1-31.9
				s6.7-32.8,26.1-32.8c7,0,14.7,1.4,14.7,7.6c0,3.1-2.1,5.3-6.8,5.3c-2.6,0-5.8-1-10.1-1c-8.5,0-10.4,6.6-10.4,20.9
				S269.4,123,276.2,123z"/>
			<path class="st1" d="M293.1,111.7c0-16.4,7.9-23.2,20.8-23.2s20.8,6.8,20.8,23.2s-7.9,23.2-20.8,23.2S293.1,128.1,293.1,111.7z
				 M321.7,111.7c0-9.9-2.9-12.4-7.8-12.4s-7.8,2.5-7.8,12.4s2.9,12.4,7.8,12.4S321.7,121.6,321.7,111.7z"/>
			<path class="st1" d="M343.3,128.8v-21.6c0-11.5,8-18.7,20.2-18.7s20.2,7.2,20.2,18.7v21.6c0,4.1-2.1,6.1-6.5,6.1s-6.5-2-6.5-6.1
				V108c0-5.7-2.6-8.6-7.2-8.6s-7.2,3-7.2,8.6v20.9c0,4.1-2.1,6.1-6.5,6.1C345.4,135,343.3,133,343.3,128.8z"/>
			<path class="st1" d="M395.6,118.8v-18.7h-2.3c-4,0-6.1-2-6.1-5.5c0-3.5,2.2-5.4,6.1-5.4h2.3v-9.7c0-4,2.7-6.8,6.7-6.8
				c3.9,0,6.3,2.5,6.3,6.6v4.4c0,2-0.5,4.2-1.1,5.5h8.5c4,0,6.1,1.9,6.1,5.4s-2.2,5.5-6.1,5.5h-7.5v19c0,3.6,0.7,4.9,2.7,4.9
				c2.5,0,3.2-0.6,5.2-0.6c3.2,0,5.3,0.8,5.3,4.3c0,4.9-3,7.2-9.8,7.2C400.8,135,395.6,129.8,395.6,118.8z"/>
			<path class="st1" d="M427.2,119.9c0-10.4,9-15.2,26-13.8c-0.8-5.5-3.6-7.1-7.4-7.1c-4.6,0-6,1-9.5,1c-3.2,0-5.3-0.8-5.3-4.3
				c0-4.9,4-7.2,13.3-7.2c14.7,0,21.6,9,21.6,22.9c0,16.1-5.1,23.5-19.6,23.5C434.3,135,427.2,128.8,427.2,119.9z M447.1,125.1
				c4.5,0,5.6-1.7,6.2-11.3c-0.6,0.6-1.6,0.8-2.6,0.8c-7.9,0-10.5,1.2-10.5,5.4C440.1,123.3,442.5,125.1,447.1,125.1z"/>
			<path class="st1" d="M497.4,123c4.3,0,7.5-1,10.1-1c4.8,0,6.8,2.3,6.8,5.3c0,6.1-7.6,7.6-14.7,7.6c-19.4,0-26.1-10.8-26.1-31.9
				s6.7-32.8,26.1-32.8c7,0,14.7,1.4,14.7,7.6c0,3.1-2.1,5.3-6.8,5.3c-2.6,0-5.8-1-10.1-1c-8.5,0-10.4,6.6-10.4,20.9
				S490.5,123,497.4,123z"/>
			<path class="st1" d="M514.2,111.7c0-16.4,7.9-23.2,20.8-23.2s20.8,6.8,20.8,23.2S547.9,135,535,135
				C522.1,135,514.2,128.1,514.2,111.7z M542.8,111.7c0-9.9-2.9-12.4-7.8-12.4s-7.8,2.5-7.8,12.4s2.9,12.4,7.8,12.4
				C539.9,124.2,542.8,121.6,542.8,111.7z"/>
			<path class="st1" d="M564.4,128.8v-21.6c0-12.2,6-18.7,16.9-18.7c7.7,0,12.4,2.5,15.1,8c2.7-5.5,7.5-8,15.1-8
				c10.9,0,16.9,6.5,16.9,18.7v21.6c0,4.1-2.1,6.1-6.5,6.1s-6.5-2-6.5-6.1V108c0-6.1-2-8.6-6.3-8.6c-4.5,0-6.5,2.8-6.5,8.6v20.5
				c0,4.1-2.1,6.1-6.3,6.1s-6.3-2-6.3-6.1V108c0-5.8-2-8.6-6.5-8.6c-4.3,0-6.3,2.8-6.3,8.6v20.9c0,4.1-2.1,6.1-6.5,6.1
				C566.5,135,564.4,133,564.4,128.8z"/>
			<path class="st1" d="M636.8,73.3c0-4.4,3.3-7.7,7.8-7.7s7.8,3.2,7.8,7.7c0,4.2-3.3,7.5-7.8,7.5S636.8,77.5,636.8,73.3z
				 M644.8,135c-4.1,0-6.7-1.9-6.7-6V94.6c0-3.8,1.8-6.1,6.5-6.1s6.5,2.3,6.5,6.1v34.3C651.1,133.1,649,135,644.8,135z"/>
			<path class="st1" d="M673.4,154.9c-9.3,0-13.3-2.3-13.3-7.2c0-3.5,2.1-4.3,5.3-4.3c3.5,0,5,0.9,9.5,0.9c9.5,0,13.3-1,13.3-5.5
				c0-3.7-3.3-6.2-7.9-6.2c-14,0-20.7-7.2-20.7-22.1c0-15,6.9-22.1,20.8-22.1c4.5,0,8.3,0.7,11.3,2.3c1.5-5.5,4.5-8.1,9.2-8.1
				c4.5,0,7.1,2.4,7.1,6.8c0,4.1-2.3,5.8-7.6,5.8c-1.2,0-2.2,0.1-3.2,0.3c2.6,3.6,3.9,8.6,3.9,15c0,8-2,13.1-8.2,16.6
				c5.9,2.2,8.2,7,8.2,12.5C701.2,149.9,691.2,154.9,673.4,154.9z M680.4,121.8c5.2,0,7.8-3.7,7.8-11.3c0-7.7-2.6-11.3-7.8-11.3
				s-7.8,3.5-7.8,11.3C672.6,118.1,675.2,121.8,680.4,121.8z"/>
			<path class="st1" d="M710.1,111.7c0-16.4,7.9-23.2,20.8-23.2s20.8,6.8,20.8,23.2s-7.9,23.2-20.8,23.2
				C718,135,710.1,128.1,710.1,111.7z M738.8,111.7c0-9.9-2.9-12.4-7.8-12.4s-7.8,2.5-7.8,12.4s2.9,12.4,7.8,12.4
				C735.9,124.2,738.8,121.6,738.8,111.7z"/>
		</g>
	</g>
</g>
</svg>
