<?xml version="1.0" encoding="utf-8"?>
<!-- Generator: Adobe Illustrator 23.1.0, SVG Export Plug-In . SVG Version: 6.00 Build 0)  -->
<svg version="1.1" id="Layer_1" xmlns="http://www.w3.org/2000/svg" xmlns:xlink="http://www.w3.org/1999/xlink" x="0px" y="0px"
	 viewBox="0 0 800 390.1" style="enable-background:new 0 0 800 390.1;" xml:space="preserve">
<style type="text/css">
	.st0{fill:#9A3589;}
</style>
<g>
	<g>
		<path class="st0" d="M668.5,82c-1.1-1.6-2.3-3.3-3.4-4.9c-5.4-7.4-15.7-9-23.1-3.6c-7.4,5.4-9,15.7-3.6,23.1c1,1.3,1.9,2.6,2.8,4
			c3.2,4.7,8.4,7.2,13.7,7.2c3.2,0,6.4-0.9,9.3-2.9C671.7,99.9,673.7,89.6,668.5,82z"/>
	</g>
</g>
<g>
	<g>
		<path class="st0" d="M100.1,206.4h-8.4c-9.1,0-16.5,7.4-16.5,16.5c0,9.1,7.4,16.5,16.5,16.5h8.4c9.1,0,16.5-7.4,16.5-16.5
			S109.2,206.4,100.1,206.4z"/>
	</g>
</g>
<g>
	<g>
		<path class="st0" d="M783.5,185.2h-82.6c-0.2-20.8-3.8-41.1-10.7-60.6c-3.1-8.6-12.5-13.1-21.1-10c-8.6,3.1-13.1,12.5-10,21.1
			c5.6,15.9,8.6,32.5,8.8,49.5H536.6v-37.2l67.6-85.6c2.5,1.8,4.9,3.6,7.2,5.5c7,5.8,17.4,4.8,23.2-2.3c5.8-7,4.8-17.4-2.3-23.2
			c-7.2-5.9-14.9-11.3-22.9-16c0,0-0.1,0-0.1-0.1c-0.1-0.1-0.2-0.2-0.4-0.2C580.2,9,547.2,0,513.5,0H347.2c-33.7,0-66.7,9-95.5,26.1
			c-0.1,0.1-0.3,0.2-0.4,0.2c0,0,0,0-0.1,0c-46.6,27.8-78.9,74.8-88.5,127.7H82.5c-22,0-42.8,8.6-58.4,24.2
			C8.6,193.8,0,214.6,0,236.6c0,30.4,24.7,55.1,55.1,55.1h164.4v48.9c0,27.3,22.2,49.5,49.5,49.5h6.9c27.3,0,49.5-22.2,49.5-49.5
			v-48.9h213v48.9c0,27.3,22.2,49.5,49.5,49.5h6.9c27.3,0,49.5-22.2,49.5-49.5v-53.2c6.8-2.3,13.2-5.4,19.3-9.4h60.1
			c20.4,0,39.5-7.9,54-22.3c14.4-14.4,22.3-33.6,22.3-53.9C800,192.6,792.6,185.2,783.5,185.2z M513.5,33L513.5,33
			c21.3,0,42.3,4.4,61.7,12.8l-54.5,69L462.4,33L513.5,33L513.5,33z M503.6,147.6v37.6H357.1v-37.6h0l73.2-102.7L503.6,147.6z
			 M347.2,33h51.1L340,114.9l-54.5-69C304.8,37.4,325.9,33,347.2,33z M55.1,258.7L55.1,258.7c-12.2,0-22.1-9.9-22.1-22.1
			c0-13.2,5.1-25.7,14.5-35c9.3-9.3,21.8-14.5,35-14.5h77.2c0,0.1,0,0.2,0,0.4v14.3v6.9c0,18.8,6.3,36.1,16.8,50.1H55.1z
			 M193.5,172.3c4.3-43.9,27.5-84,63-109.8l67.6,85.6v37.2H192.8C192.9,180.9,193.1,176.5,193.5,172.3z M292.4,340.6
			c0,9.1-7.4,16.5-16.5,16.5H269c-9.1,0-16.5-7.4-16.5-16.5v-48.9h39.9V340.6z M611.3,340.6c0,9.1-7.4,16.5-16.5,16.5h-6.9
			c-9.1,0-16.5-7.4-16.5-16.5v-48.9h39.9L611.3,340.6L611.3,340.6z M648.4,248.3c0,0-0.1,0.1-0.1,0.1c-8.8,6.7-19.3,10.3-30.4,10.3
			h-63h-246h-66.1c-24.3,0-44.7-17.4-49.1-40.5h147h179.5h147C664.8,230.1,658.3,240.8,648.4,248.3z M754.3,232.3
			c-8.2,8.2-19.1,12.7-30.6,12.7h-31.1c4.1-8.3,6.7-17.4,7.8-26.8h63.3C761.6,223.5,758.4,228.2,754.3,232.3z"/>
	</g>
</g>
</svg>
