<?xml version="1.0" encoding="utf-8"?>
<!-- Generator: Adobe Illustrator 23.1.0, SVG Export Plug-In . SVG Version: 6.00 Build 0)  -->
<svg version="1.1" id="Camada_1" xmlns="http://www.w3.org/2000/svg" xmlns:xlink="http://www.w3.org/1999/xlink" x="0px" y="0px"
	 viewBox="0 0 399.91 408.45" style="enable-background:new 0 0 399.91 408.45;" xml:space="preserve">
<style type="text/css">
	.st0{fill:#727FB4;}
	.st1{fill:#9DBB6D;}
	.st2{fill:#865A9F;}
	.st3{fill:#90B994;}
	.st4{fill:#9A3589;}
	.st5{fill:#83B6BB;}
</style>
<g>
	<g>
		<path class="st0" d="M200.18,306.45c-66.67,0-133.33,0-200,0c-1.33-55.83,44.27-102.5,100-102.5S201.51,250.62,200.18,306.45z"/>
	</g>
	<g>
		<path class="st1" d="M199.88,305.95c66.67,0,133.33,0,200,0c1.33,55.83-44.27,102.5-100,102.5S198.55,361.78,199.88,305.95z"/>
	</g>
	<g>
		<path class="st2" d="M200.03,204.52c-66.67,0-133.33,0-200,0c-1.33-55.83,44.27-102.5,100-102.5S201.36,148.69,200.03,204.52z"/>
	</g>
	<g>
		<path class="st3" d="M199.73,204.02c66.67,0,133.33,0,200,0c1.33,55.83-44.27,102.5-100,102.5S198.4,259.85,199.73,204.02z"/>
	</g>
	<g>
		<path class="st4" d="M200.03,102.5c-66.67,0-133.33,0-200,0C-1.3,46.67,44.29,0,100.03,0S201.36,46.67,200.03,102.5z"/>
	</g>
	<g>
		<path class="st5" d="M199.73,102c66.67,0,133.33,0,200,0c1.33,55.83-44.27,102.5-100,102.5S198.4,157.83,199.73,102z"/>
	</g>
</g>
</svg>
