<?xml version="1.0" encoding="utf-8"?>
<!-- Generator: Adobe Illustrator 23.1.0, SVG Export Plug-In . SVG Version: 6.00 Build 0)  -->
<svg version="1.1" id="Layer_1" xmlns="http://www.w3.org/2000/svg" xmlns:xlink="http://www.w3.org/1999/xlink" x="0px" y="0px"
	 viewBox="0 0 800 800" style="enable-background:new 0 0 800 800;" xml:space="preserve">
<style type="text/css">
	.st0{fill:#9A3589;}
</style>
<g>
	<g>
		<path class="st0" d="M758.1,93.7H621.4V16.6c0-9.2-7.4-16.6-16.6-16.6c-42.1,0-76.4,34.3-76.4,76.4v197.5v43.3l-49.7,6.4
			c-9.1,1.2-15.5,9.5-14.3,18.6c1.1,8.4,8.2,14.5,16.4,14.5c0.7,0,1.4,0,2.2-0.1l63.1-8.2h55.7v60.1c0,48.2-39.2,87.3-87.3,87.3
			h-1.6c-9.2,0-16.6,7.4-16.6,16.6v210.7c0,9.2,7.4,16.6,16.6,16.6h13.6c18.2,0,33.8,11.2,40.3,27H464.6V512.5v-46
			c0-9.2-7.4-16.6-16.6-16.6s-16.6,7.4-16.6,16.6v29.4H272v-29.4c0-9.2-7.4-16.6-16.6-16.6c-9.2,0-16.6,7.4-16.6,16.6v46v40.3
			c0,31.6-25.7,57.2-57.2,57.2c-9.2,0-16.6,7.4-16.6,16.6v96.6c0,9.2,7.4,16.6,16.6,16.6h13.6c18.2,0,33.8,11.2,40.3,27H133.3V529.1
			h25.8c9.2,0,16.6-7.4,16.6-16.6v-72.7c0-9.2-7.4-16.6-16.6-16.6H93.9c-15.4,0-28.5-9.9-33.4-23.6h90.1c0.7,0,1.4,0,2.1-0.1
			l231.2-30c9.1-1.2,15.5-9.5,14.3-18.6c-1.2-9.1-9.5-15.5-18.6-14.3l-230.1,29.8H41.9c-9.2,0-16.6,7.4-16.6,16.6v4.8
			c0,37.8,30.8,68.6,68.6,68.6h48.7v39.5h-25.8c-9.2,0-16.6,7.4-16.6,16.6v270.9c0,9.2,7.4,16.6,16.6,16.6h138.7
			c9.2,0,16.6-7.4,16.6-16.6c0-41.4-32.9-75.2-73.8-76.7v-64.9c42-7.8,73.8-44.7,73.8-88.9v-23.7h159.3v254.3
			c0,9.2,7.4,16.6,16.6,16.6h138.7c9.2,0,16.6-7.4,16.6-16.6c0-41.4-32.9-75.2-73.8-76.7V528.1c59.4-7.4,105.6-58.2,105.6-119.6
			v-76.7v-57.9v-47h23.1c64.3,0,116.6-52.3,116.6-116.6C774.7,101.2,767.3,93.7,758.1,93.7z M601.8,315.2h-40.2v-24.7h40.2V315.2z
			 M658.1,193.7h-39.8c-9.2,0-16.6,7.4-16.6,16.6v47h-40.2V76.4c0-17.9,11-33.3,26.5-39.8v73.8c0,9.2,7.4,16.6,16.6,16.6h27.7v16.6
			c0,9.2,7.4,16.6,16.6,16.6s16.6-7.4,16.6-16.6v-16.6h74.2C732.1,165,698.4,193.7,658.1,193.7z"/>
	</g>
</g>
<g>
	<g>
		<path class="st0" d="M455.3,343.5c-1.2-9.1-9.5-15.5-18.6-14.3l-7,0.9c-9.1,1.2-15.5,9.5-14.3,18.6c1.1,8.4,8.2,14.5,16.4,14.5
			c0.7,0,1.4,0,2.2-0.1l7-0.9C450.1,360.9,456.5,352.6,455.3,343.5z"/>
	</g>
</g>
</svg>
