<?xml version="1.0" encoding="utf-8"?>
<!-- Generator: Adobe Illustrator 23.1.0, SVG Export Plug-In . SVG Version: 6.00 Build 0)  -->
<svg version="1.1" id="Layer_1" xmlns="http://www.w3.org/2000/svg" xmlns:xlink="http://www.w3.org/1999/xlink" x="0px" y="0px"
	 viewBox="0 0 517.9 800" style="enable-background:new 0 0 517.9 800;" xml:space="preserve">
<style type="text/css">
	.st0{fill:#9A3589;}
</style>
<g>
	<g>
		<path class="st0" d="M246.4,288.7c-9.2,0-16.6,7.4-16.6,16.6v20.6c0,9.2,7.4,16.6,16.6,16.6c9.2,0,16.6-7.4,16.6-16.6v-20.6
			C263,296.2,255.6,288.7,246.4,288.7z"/>
	</g>
</g>
<g>
	<g>
		<path class="st0" d="M246.4,412.5c-9.2,0-16.6,7.4-16.6,16.6v20.6c0,9.2,7.4,16.6,16.6,16.6s16.6-7.4,16.6-16.6v-20.6
			C263,419.9,255.6,412.5,246.4,412.5z"/>
	</g>
</g>
<g>
	<g>
		<path class="st0" d="M216.9,350.6c-9.2,0-16.6,7.4-16.6,16.6v20.6c0,9.2,7.4,16.6,16.6,16.6c9.2,0,16.6-7.4,16.6-16.6v-20.6
			C233.5,358,226.1,350.6,216.9,350.6z"/>
	</g>
</g>
<g>
	<g>
		<path class="st0" d="M275.9,350.6c-9.2,0-16.6,7.4-16.6,16.6v20.6c0,9.2,7.4,16.6,16.6,16.6c9.2,0,16.6-7.4,16.6-16.6v-20.6
			C292.5,358,285.1,350.6,275.9,350.6z"/>
	</g>
</g>
<g>
	<g>
		<path class="st0" d="M503.1,591.8c-9.5-9.2-22.1-14.1-35.4-13.5c-26.2,0.9-46.7,22.5-46.7,49.2V640c0,3.6-0.3,7.3-0.9,10.8
			c-1.6,9,4.5,17.6,13.5,19.2c9,1.6,17.6-4.5,19.2-13.5c0.9-5.4,1.4-10.9,1.4-16.5v-12.6c0-8.5,6.6-15.7,14.7-16
			c4.2-0.2,8.1,1.4,11.1,4.3c3,2.9,4.7,6.8,4.7,11V640c0,34.2-13.5,66.2-37.9,90.3c-24.4,24-56.7,37-90.9,36.5
			c-68.8-1-124.8-58.9-124.8-128.9v-3.6c0-48.4-9.7-96.8-28.8-143.9c-12.4-30.5-19.2-70.1-19.2-111.6c0-49.5,9.7-95.9,26.5-127.2
			c10.5-19.6,10.3-43.1-0.5-62.8c-5.3-9.6-8.9-21-10.4-33c-0.7-5.4-4-10.1-8.9-12.6c-4.9-2.5-10.6-2.4-15.4,0.1
			c-2,1.1-4.3,1.6-6.6,1.6c-4,0-7.7-1.6-10.3-4.6c-2.7-3-3.9-6.8-3.5-10.9c0.7-6.4,6.1-11.7,12.5-12.2c4.2-0.3,7.3,1.1,9.2,2.5
			c4.6,3.2,10.4,3.9,15.6,1.8c5.2-2,9-6.6,10.1-12c9.4-44.9,31.3-76.2,44.9-76.2c13.7,0,35.5,31.3,44.9,76.2c1.1,5.5,5,10,10.1,12
			c5.2,2,11,1.4,15.6-1.8c1.6-1.2,4.4-2.5,8-2.5c4,0,7.7,1.6,10.4,4.6c2.7,3,3.9,6.9,3.5,10.9c-0.7,6.3-6,11.6-12.4,12.2
			c-2.9,0.3-5.5-0.3-8-1.6c-4.8-2.6-10.6-2.6-15.4-0.1c-4.9,2.5-8.2,7.2-8.9,12.6c-1.6,12-5.2,23.5-10.4,33
			c-10.9,19.7-11.1,43.2-0.5,62.8c16.8,31.3,26.5,77.7,26.5,127.2c0,41.5-6.8,81.1-19.2,111.6c-19.1,47.1-28.8,95.5-28.8,143.9v4.4
			c0,52.9,42.4,96.8,94.6,97.7c9.8,0.2,19.5-1.1,28.9-3.9c8.8-2.6,13.8-11.8,11.3-20.6c-2.6-8.8-11.8-13.8-20.6-11.3
			c-6.1,1.8-12.5,2.6-18.9,2.5c-34.2-0.6-62-29.6-62-64.5v-4.4c0-44.1,8.9-88.3,26.4-131.4c2.4-5.8,4.5-11.9,6.5-18.3h2.8
			c29.5,0,58.8,8.1,84.2,23l-3.1,3.1c-6.5,6.5-6.5,17,0,23.5c3.2,3.2,7.5,4.9,11.7,4.9s8.5-1.6,11.7-4.9l6.7-6.7
			c2.1,1.9,4.1,3.7,6,5.7c3.2,3.2,7.5,4.9,11.7,4.9c4.2,0,8.5-1.6,11.7-4.9c6.5-6.5,6.5-17,0-23.5c-2-2-4-3.9-6-5.7l6-6
			c6.5-6.5,6.5-17,0-23.5c-6.5-6.5-17-6.5-23.5,0l-9,9c-30.5-19.8-66.4-30.9-102.8-32c4.4-22.8,6.8-47.5,6.8-72.7
			c0-6.9-0.2-13.7-0.5-20.5h4.9c38.3,0,76.2-11.3,108.3-32.1l9,9c3.2,3.2,7.5,4.9,11.7,4.9c4.2,0,8.5-1.6,11.7-4.9
			c6.5-6.5,6.5-17,0-23.5l-6-6c2-1.9,4.1-3.8,6-5.7c6.5-6.5,6.5-17,0-23.5c-6.5-6.5-17-6.5-23.5,0c-1.9,1.9-4,3.8-6,5.7l-6.7-6.7
			c-6.5-6.5-17-6.5-23.5,0c-6.5,6.5-6.5,17,0,23.5l3.1,3.1c-25.4,14.9-54.6,23-84.2,23h-8c-4.7-34.3-13.9-65.3-26.8-89.3
			c-5.2-9.6-5-21.2,0.4-31c4.5-8.2,8.1-17.2,10.7-26.7c2,0.1,4.1,0,6.1-0.2c22.1-2.1,39.9-19.6,42.3-41.6
			c1.5-13.4-2.8-26.7-11.7-36.7c-8.9-10-21.7-15.7-35.1-15.7c-2,0-3.9,0.1-5.8,0.4C306.2,39.9,280.4,0,246.4,0
			c-33.9,0-59.8,39.9-72.8,84.2c-3.3-0.4-6.6-0.5-10-0.2c-22.3,1.9-40.3,19.5-42.7,41.7c-1.4,13.3,2.8,26.7,11.8,36.6
			c8.9,9.9,21.7,15.7,35.1,15.7c0.5,0,1,0,1.6,0c2.6,9.5,6.2,18.6,10.7,26.7c5.4,9.8,5.5,21.4,0.4,31c-6.3,11.6-11.6,24.9-16.1,39.5
			h-2.1c-29.5,0-58.8-8.1-84.2-23l3.1-3.1c6.5-6.5,6.5-17,0-23.5c-6.5-6.5-17-6.5-23.5,0l-6.7,6.7c-2.1-1.9-4.1-3.8-6-5.7
			c-6.5-6.5-17-6.5-23.5,0c-6.5,6.5-6.5,17,0,23.5c1.9,1.9,4,3.8,6,5.7l-6,6c-6.5,6.5-6.5,17,0,23.5c3.2,3.2,7.5,4.9,11.7,4.9
			s8.5-1.6,11.7-4.9l9-9c30.4,19.7,66.1,30.9,102.4,32c-4.1,22.1-6.3,46-6.3,70.4c0,7.7,0.2,15.3,0.7,22.8h-5
			c-38.3,0-76.2,11.3-108.3,32.1l-9-9c-6.5-6.5-17-6.5-23.5,0c-6.5,6.5-6.5,17,0,23.5l6,6c-2,1.9-4,3.8-6,5.7
			c-6.5,6.5-6.5,17,0,23.5c3.2,3.2,7.5,4.9,11.7,4.9s8.5-1.6,11.7-4.9c2-2,4-3.8,6-5.7l6.7,6.7c3.2,3.2,7.5,4.9,11.7,4.9
			s8.5-1.6,11.7-4.9c6.5-6.5,6.5-17,0-23.5l-3.1-3.1c25.4-14.9,54.6-23,84.2-23h8.3c3.6,24.9,9.6,48.1,17.7,68.1
			c17.5,43.1,26.4,87.3,26.4,131.4v3.6c0,88.1,70.7,160.8,157.5,162.1c0.8,0,1.7,0,2.5,0c42.2,0,81.9-16.3,112.1-46
			c30.8-30.3,47.8-70.8,47.8-114v-13.4C517.9,613.4,512.7,601,503.1,591.8z"/>
	</g>
</g>
<g>
	<g>
		<path class="st0" d="M429.7,678.4c-7-5.9-17.5-5-23.4,2.1c-0.8,0.9-1.6,1.8-2.4,2.7c-6.3,6.7-6,17.2,0.7,23.5
			c3.2,3,7.3,4.5,11.4,4.5c4.4,0,8.8-1.8,12.1-5.2c1.3-1.4,2.5-2.7,3.7-4.2C437.7,694.8,436.8,684.3,429.7,678.4z"/>
	</g>
</g>
</svg>
