<?xml version="1.0" encoding="utf-8"?>
<!-- Generator: Adobe Illustrator 23.1.0, SVG Export Plug-In . SVG Version: 6.00 Build 0)  -->
<svg version="1.1" id="Camada_1" xmlns="http://www.w3.org/2000/svg" xmlns:xlink="http://www.w3.org/1999/xlink" x="0px" y="0px"
	 viewBox="0 0 500.2 468.4" style="enable-background:new 0 0 500.2 468.4;" xml:space="preserve">
<style type="text/css">
	
		.st0{fill:none;stroke:#9A3589;stroke-width:32;stroke-linecap:round;stroke-linejoin:round;stroke-miterlimit:8;stroke-opacity:0.9;}
	
		.st1{fill:none;stroke:#9A3589;stroke-width:24;stroke-linecap:round;stroke-linejoin:round;stroke-miterlimit:8;stroke-opacity:0.9;}
</style>
<path class="st0" d="M174.6,427.4c-151.5-33.3,62-237.2-21-266.4c-69.8-24.6-83.6,60.7-105.5,60.7C17.6,221.7-39.4,15.1,153.6,16
	c193.1,0.9,93,126.4,74.4,201.7c-14.7,59.6-24.2,119.8-28.5,180.8c34.2-120.1,83.6-180.2,148.4-180.2"/>
<path class="st0" d="M347.9,218.3c1.3-30.6,10.9-59.2,13.6-88.6"/>
<path class="st0" d="M361.5,129.6c1.5,5.4,13.8,22.3,20.9,25.5c32,14.7,109.2,21.1,82.8,68.4c-11.6,20.6-46.4,24.3-67.7,24.3"/>
<path class="st0" d="M358.2,313.8c48.8,9.2,34.2,106.9-3.8,128.1c-14.2,7.9-39.8,11.3-77,10.4h125"/>
<path class="st0" d="M359.2,313.8c35.4,0,61.1-5.3,77.3-15.9"/>
<path class="st0" d="M436.5,302.3c20.2,107.9,80.1-46.2,25.1-25.2c-11.8,4.5-19.6,8.5-24,20.6"/>
<path class="st1" d="M407.5,202.4c-0.1-0.8-0.1-1.6-0.2-2.3"/>
</svg>
