<svg width="40" height="40" viewBox="0 0 40 40" fill="none" xmlns="http://www.w3.org/2000/svg">
<path fill-rule="evenodd" clip-rule="evenodd" d="M20 30C25.5228 30 30 25.5228 30 20C30 14.4771 25.5228 10 20 10C14.4771 10 10 14.4771 10 20C10 25.5228 14.4771 30 20 30ZM20 26.6667C23.6818 26.6667 26.6667 23.6818 26.6667 20C26.6667 16.3181 23.6818 13.3333 20 13.3333C16.3181 13.3333 13.3333 16.3181 13.3333 20C13.3333 23.6818 16.3181 26.6667 20 26.6667Z" fill="white"/>
<path d="M29.9999 8.33325C29.0794 8.33325 28.3333 9.07945 28.3333 9.99992C28.3333 10.9204 29.0794 11.6666 29.9999 11.6666C30.9204 11.6666 31.6666 10.9204 31.6666 9.99992C31.6666 9.07945 30.9204 8.33325 29.9999 8.33325Z" fill="white"/>
<path fill-rule="evenodd" clip-rule="evenodd" d="M2.75668 7.12685C1.66675 9.26596 1.66675 12.0662 1.66675 17.6667V22.3334C1.66675 27.9339 1.66675 30.7342 2.75668 32.8732C3.71541 34.7549 5.24521 36.2847 7.12685 37.2434C9.26596 38.3334 12.0662 38.3334 17.6667 38.3334H22.3334C27.9339 38.3334 30.7342 38.3334 32.8732 37.2434C34.7549 36.2847 36.2847 34.7549 37.2434 32.8732C38.3334 30.7342 38.3334 27.9339 38.3334 22.3334V17.6667C38.3334 12.0662 38.3334 9.26596 37.2434 7.12685C36.2847 5.24521 34.7549 3.71541 32.8732 2.75668C30.7342 1.66675 27.9339 1.66675 22.3334 1.66675H17.6667C12.0662 1.66675 9.26596 1.66675 7.12685 2.75668C5.24521 3.71541 3.71541 5.24521 2.75668 7.12685ZM22.3334 5.00008H17.6667C14.8115 5.00008 12.8705 5.00268 11.3702 5.12525C9.90881 5.24465 9.16148 5.46106 8.64015 5.7267C7.38573 6.36586 6.36586 7.38573 5.7267 8.64015C5.46106 9.16148 5.24465 9.90881 5.12525 11.3702C5.00268 12.8705 5.00008 14.8115 5.00008 17.6667V22.3334C5.00008 25.1887 5.00268 27.1296 5.12525 28.6299C5.24465 30.0914 5.46106 30.8387 5.7267 31.3601C6.36586 32.6144 7.38573 33.6342 8.64015 34.2734C9.16148 34.5391 9.90881 34.7556 11.3702 34.8749C12.8705 34.9974 14.8115 35.0001 17.6667 35.0001H22.3334C25.1887 35.0001 27.1296 34.9974 28.6299 34.8749C30.0914 34.7556 30.8387 34.5391 31.3601 34.2734C32.6144 33.6342 33.6342 32.6144 34.2734 31.3601C34.5391 30.8387 34.7556 30.0914 34.8749 28.6299C34.9974 27.1296 35.0001 25.1887 35.0001 22.3334V17.6667C35.0001 14.8115 34.9974 12.8705 34.8749 11.3702C34.7556 9.90881 34.5391 9.16148 34.2734 8.64015C33.6342 7.38573 32.6144 6.36586 31.3601 5.7267C30.8387 5.46106 30.0914 5.24465 28.6299 5.12525C27.1296 5.00268 25.1887 5.00008 22.3334 5.00008Z" fill="white"/>
</svg>
