<?xml version="1.0" encoding="utf-8"?>
<!-- Generator: Adobe Illustrator 23.1.0, SVG Export Plug-In . SVG Version: 6.00 Build 0)  -->
<svg version="1.1" id="Layer_1" xmlns="http://www.w3.org/2000/svg" xmlns:xlink="http://www.w3.org/1999/xlink" x="0px" y="0px"
	 viewBox="0 0 800 314.7" style="enable-background:new 0 0 800 314.7;" xml:space="preserve">
<style type="text/css">
	.st0{fill:#9A3589;}
</style>
<g>
	<g>
		<path class="st0" d="M372.8,101.4c-2.3-8.8-11.3-14-20.1-11.7c-1.1,0.3-2.3,0.6-3.5,1c-8.7,2.5-13.8,11.6-11.3,20.3
			c2.1,7.2,8.7,11.9,15.8,11.9c1.5,0,3-0.2,4.5-0.6c1-0.3,1.9-0.5,2.8-0.8C369.9,119.2,375.1,110.2,372.8,101.4z"/>
	</g>
</g>
<g>
	<g>
		<path class="st0" d="M793.5,67.8c-4.1-3.1-9.2-7.8-15.1-13.3c-26-24.1-69.5-64.5-130.7-52.3c-39.7,8-62.6,36-80.9,58.5
			c-16.5,20.2-27.3,32.6-42.1,32.6c-8.9,0-14.4-1.2-22.8-2.9c-15.1-3.2-35.9-7.5-87.7-7.5c-5.1,0-9.8,0.1-14.3,0.2
			c-9.1,0.3-16.2,8-15.8,17.1c0.3,9.1,8,16.2,17.1,15.8c4.1-0.2,8.4-0.2,13.1-0.2c48.4,0,67.2,3.9,81,6.8c8.9,1.9,17.3,3.6,29.6,3.6
			c31.1,0,49.7-22.7,67.6-44.7c16.6-20.3,33.7-41.3,61.9-47c44.7-9,77.7,21.7,101.9,44.1c2.6,2.4,5,4.7,7.4,6.8
			c-8.9,15.1-33.6,44.8-96,62.3v-4.3c0-9.1-7.4-16.5-16.5-16.5c-9.1,0-16.5,7.4-16.5,16.5v35.2c-2.6,65.9-52,68-57.5,68
			c-0.1,0-0.1,0-0.2,0c-4.3,0-8.5,1.7-11.6,4.8c-3.1,3.1-4.9,7.3-4.9,11.7v18.2c-2-0.3-4-0.9-5.7-1.8c-17.3-9-26.8-23-28.9-42.9
			c-2.8-25.5,7.7-50.7,7.9-51.1c3.6-8.3-0.3-18-8.6-21.6c-8.4-3.6-18,0.3-21.6,8.6c-0.5,1.1-10.4,24.7-11,52.9
			c-31.5,5.5-67.7-0.5-85.9-4.3c-1.4-16.2-7.5-33.2-18-50.7c-4.7-7.8-14.8-10.3-22.6-5.6c-7.8,4.7-10.3,14.8-5.6,22.6
			c10.1,16.7,14.6,32,13.5,45.3c-2.4,29.1-32.3,44.7-41,48.6h-15.8c-13.6,0-34.4-3.2-43.6-7.9c-16-8.3-27-21.4-32.6-39
			c-2-7.9-9.4-13.2-17.5-12.4c-0.2,0-0.5,0.1-0.7,0.1c-0.3,0-0.5,0.1-0.8,0.1c-0.3,0.1-35.4,5.9-83-17.9c-2.1-1.1-4.3-2.2-6.4-3.3
			c38.6,7.2,85.2,2.9,134.8-30.3c21.5-14.4,38.3-24.7,52.6-32.3c8-4.2,11.1-14.2,6.9-22.2c-4.2-8-14.2-11.1-22.2-6.9
			c-15.4,8.2-33.1,19-55.6,34c-49.1,32.9-100.5,36.6-152.7,11c-40.5-19.9-66.6-50.7-66.8-50.9c-5.7-6.8-15.7-7.9-22.7-2.5
			c-7,5.4-8.5,15.3-3.4,22.5c36.1,51.2,76.8,88.3,120.9,110.4c37.2,18.6,68.4,22,86.7,22c1,0,2,0,3,0c9.2,20.5,24.3,36.6,44.5,47
			c16.5,8.5,44.2,11.6,58.7,11.6h19c0,0,0.1,0,0.1,0c0,0,0.1,0,0.1,0h81.5c9.1,0,16.5-7.4,16.5-16.5c0-9.1-7.4-16.5-16.5-16.5h-30.7
			c6.5-7.6,12.1-16.7,15.7-27.4c14.7,3,37.4,6.6,61.5,6.6c10.7,0,21.7-0.7,32.4-2.5c6.7,22.1,21.3,39.4,42.8,50.6
			c7.4,3.9,15.9,5.9,24.6,5.9h59.3c9.1,0,16.5-7.4,16.5-16.5c0-9.1-7.4-16.5-16.5-16.5h-30.2v-4c7.9-1.7,17.7-4.7,27.6-10.5
			c19.9-11.4,43.9-35.5,46.4-85.4c111.1-27.9,131.3-93.5,132.1-96.3C801.2,79,798.9,71.9,793.5,67.8z"/>
	</g>
</g>
<g>
	<g>
		<path class="st0" d="M689.2,56.3c-9.1,0-16.5,7.4-16.5,16.5c0,3.3-2.7,6-6,6s-6-2.7-6-6c0-9.1-7.4-16.5-16.5-16.5
			c-9.1,0-16.5,7.4-16.5,16.5c0,21.5,17.5,38.9,39,38.9c21.5,0,39-17.5,39-38.9C705.6,63.6,698.3,56.3,689.2,56.3z"/>
	</g>
</g>
</svg>
